<svg width="12" height="23" viewBox="0 0 12 23" fill="none" xmlns="http://www.w3.org/2000/svg">
<path d="M5.048 0.800049V3.32005C2.288 3.58405 0.175996 5.45605 0.175996 8.12005C0.175996 9.56005 0.751996 11.696 4.352 12.728L6.392 13.256C7.976 13.688 8.744 14.432 8.672 15.512C8.6 16.64 7.592 17.504 5.936 17.504C4.16 17.504 3.152 16.4 3.08 15.176H0.00799561C0.00799561 17.744 2 19.904 5.048 20.216V22.928H6.704V20.216C9.368 19.952 11.624 18.344 11.744 15.584C11.864 13.64 10.952 11.576 7.232 10.544L5.192 9.94405C3.416 9.51205 3.224 8.52805 3.224 8.04805C3.224 6.87205 4.328 6.10405 5.696 6.10405C7.232 6.10405 8.168 6.94405 8.168 8.26405H11.24C11.24 5.50405 9.344 3.65605 6.704 3.34405V0.800049H5.048Z" fill="#009D98"/>
</svg>
